<?xml version="1.0" standalone="no"?>
<!DOCTYPE svg PUBLIC "-//W3C//DTD SVG 20010904//EN"
 "http://www.w3.org/TR/2001/REC-SVG-20010904/DTD/svg10.dtd">
<svg version="1.0" xmlns="http://www.w3.org/2000/svg"
 width="554.000000pt" height="554.000000pt" viewBox="0 0 554.000000 554.000000"
 preserveAspectRatio="xMidYMid meet">
<metadata>
Created by potrace 1.11, written by Peter Selinger 2001-2013
</metadata>
<g transform="translate(0.000000,554.000000) scale(0.100000,-0.100000)"
fill="#000000" stroke="none">
<path d="M3527 4954 c-1 -1 -54 -5 -117 -8 -63 -4 -137 -9 -165 -11 -27 -2
-97 -7 -155 -10 -58 -4 -128 -8 -156 -10 -28 -2 -98 -6 -155 -10 -57 -4 -122
-8 -144 -10 -22 -1 -64 -3 -92 -4 -29 0 -53 -5 -53 -11 0 -5 4 -10 10 -10 10
0 60 -22 225 -100 50 -23 113 -52 140 -65 28 -12 88 -40 135 -63 47 -22 117
-54 155 -72 39 -18 97 -45 130 -60 285 -132 543 -251 674 -312 35 -17 96 -45
135 -63 39 -18 112 -52 161 -75 105 -49 135 -61 135 -55 0 3 -19 31 -43 62
-24 32 -68 92 -99 133 -30 41 -86 118 -125 170 -38 52 -127 174 -198 270 -70
96 -153 208 -183 248 l-54 73 -80 -3 c-43 -1 -80 -3 -81 -4z"/>
<path d="M2200 4678 c-26 -57 -77 -166 -113 -243 -36 -77 -86 -184 -111 -238
-25 -55 -46 -100 -46 -102 0 -2 -31 -69 -70 -150 -38 -81 -70 -148 -70 -150 0
-2 -24 -55 -53 -117 -30 -62 -67 -142 -83 -178 -16 -36 -36 -81 -46 -100 l-17
-35 47 -22 c26 -11 79 -36 117 -53 39 -18 97 -45 130 -60 91 -42 179 -82 299
-139 59 -28 110 -51 112 -51 2 0 44 -20 94 -44 50 -25 92 -45 93 -45 4 0 508
-233 816 -377 51 -24 95 -44 97 -44 1 0 49 -22 106 -49 148 -70 259 -122 286
-132 21 -8 26 -3 61 74 52 110 90 193 236 507 68 146 140 301 160 345 75 162
98 211 122 265 14 30 40 87 59 126 19 38 34 75 34 81 0 5 -34 26 -76 45 l-76
35 -67 -19 c-36 -10 -79 -21 -96 -24 -16 -3 -66 -14 -110 -25 -44 -12 -91 -23
-105 -25 -14 -3 -34 -8 -45 -11 -11 -4 -24 -8 -30 -9 -5 -1 -62 -14 -125 -30
-63 -15 -117 -28 -120 -29 -3 -1 -18 -4 -35 -8 -16 -4 -39 -9 -50 -12 -11 -2
-67 -16 -125 -30 -294 -72 -401 -97 -403 -94 -2 2 -76 153 -166 334 -89 182
-222 450 -294 597 -101 203 -138 269 -157 278 -14 7 -49 23 -78 36 l-53 24
-49 -102z"/>
<path d="M2590 4651 c0 -3 13 -31 28 -61 16 -30 68 -131 117 -225 48 -93 113
-219 145 -280 32 -60 90 -173 130 -250 40 -77 74 -142 77 -144 2 -3 50 5 106
18 56 13 113 25 127 28 14 2 52 10 85 18 111 27 290 66 320 71 17 3 48 10 70
16 22 5 47 11 55 13 45 9 259 56 283 63 l28 7 -43 22 c-24 12 -167 79 -318
149 -151 69 -309 142 -350 161 -41 19 -102 48 -135 63 -413 191 -611 283 -662
308 -35 17 -63 27 -63 23z"/>
<path d="M1664 4100 c-79 -53 -213 -166 -300 -254 -256 -258 -446 -578 -540
-908 -30 -106 -30 -107 -54 -243 -19 -109 -26 -462 -10 -545 5 -25 11 -64 15
-87 9 -61 56 -242 76 -288 6 -16 13 -35 14 -41 6 -25 89 -194 133 -269 87
-149 251 -342 387 -456 174 -145 485 -308 675 -354 8 -2 49 -12 90 -23 41 -11
95 -23 120 -26 25 -4 56 -9 70 -12 14 -3 115 -7 225 -9 174 -3 221 0 355 20
183 29 177 28 307 60 119 29 280 82 306 100 16 11 10 13 -40 14 -56 1 -97 4
-213 17 -97 10 -121 14 -224 35 -250 50 -506 146 -695 260 -34 22 -64 39 -66
39 -6 0 -105 69 -162 113 -107 83 -187 158 -259 245 -78 93 -74 89 -125 172
-114 189 -178 381 -212 631 -13 99 -15 355 -3 469 12 114 50 308 72 364 4 10
-10 22 -48 39 -29 14 -92 43 -140 65 l-88 41 19 43 c10 24 35 77 54 118 19 41
81 174 137 295 56 121 122 262 146 314 24 52 43 96 41 98 -2 2 -30 -15 -63
-37z"/>
<path d="M4566 3498 c-13 -31 -52 -115 -133 -288 -20 -41 -61 -131 -93 -200
-32 -69 -73 -159 -92 -200 -40 -84 -152 -325 -205 -440 -19 -41 -55 -120 -80
-175 -25 -55 -49 -104 -54 -109 -4 -4 -62 17 -128 47 -139 64 -127 68 -161
-54 -32 -116 -42 -257 -26 -378 14 -112 75 -250 143 -326 76 -84 231 -157 361
-170 l54 -5 55 57 c74 79 217 270 279 373 153 254 259 558 291 830 10 81 9
419 -1 480 -21 126 -36 197 -61 280 -27 89 -112 297 -126 305 -4 3 -15 -9 -23
-27z"/>
<path d="M1781 3028 c-14 -44 -42 -157 -47 -188 -2 -14 -6 -34 -9 -45 -13 -63
-20 -170 -19 -325 1 -139 6 -197 23 -280 27 -129 81 -290 131 -391 37 -73 152
-253 169 -263 5 -3 2 13 -6 36 -26 77 -32 187 -14 282 11 59 57 173 66 164 3
-2 9 -25 14 -49 32 -154 107 -355 174 -464 34 -55 74 -113 97 -140 132 -154
277 -256 507 -356 l42 -18 -35 46 c-44 57 -72 111 -91 176 -22 75 -24 89 -10
81 32 -19 102 -70 105 -76 2 -5 8 -8 13 -8 5 0 28 -11 50 -26 114 -72 306
-153 459 -193 204 -54 453 -68 620 -36 121 23 275 90 366 158 105 79 107 92 7
42 -126 -62 -251 -93 -367 -90 -124 3 -337 60 -446 118 -84 45 -84 49 0 43 44
-4 81 -2 90 4 13 8 12 10 -5 10 -28 1 -165 87 -222 140 -113 106 -189 241
-227 405 l-7 30 17 -24 c23 -32 103 -81 132 -81 19 0 22 4 16 22 -8 27 -8 178
1 238 10 71 44 179 77 248 18 37 27 66 22 71 -5 5 -115 57 -244 116 -129 59
-277 127 -328 151 -51 24 -95 44 -96 44 -2 0 -50 22 -107 49 -57 26 -131 61
-164 76 -98 44 -156 71 -230 105 -38 18 -124 57 -190 87 -66 31 -156 72 -201
93 -121 56 -120 56 -133 18z"/>
</g>
</svg>
